<?xml version="1.0" encoding="iso-8859-1"?>
<!-- Generator: Adobe Illustrator 19.0.0, SVG Export Plug-In . SVG Version: 6.00 Build 0)  -->
<svg version="1.1" id="Layer_1" xmlns="http://www.w3.org/2000/svg" xmlns:xlink="http://www.w3.org/1999/xlink" x="0px" y="0px"
	 viewBox="0 0 512 512" style="enable-background:new 0 0 512 512;" xml:space="preserve">
<g>
	<polygon style="fill:#556080;" points="353.103,485.516 79.448,485.516 0,397.241 512,397.241 	"/>
	<polygon style="fill:#8697CB;" points="432.552,397.241 52.966,397.241 52.966,273.654 370.759,273.654 	"/>
	<g>
		<polygon style="fill:#556080;" points="150.069,361.933 211.862,361.933 211.862,308.967 150.069,308.967 		"/>
		<polygon style="fill:#556080;" points="88.276,361.933 150.069,361.933 150.069,308.967 88.276,308.967 		"/>
		<polygon style="fill:#556080;" points="370.759,361.93 247.172,361.93 247.172,308.965 344.276,308.965 		"/>
		<polygon style="fill:#556080;" points="123.586,273.657 176.552,273.657 176.552,167.726 123.586,167.726 		"/>
		<polygon style="fill:#556080;" points="247.172,273.657 300.138,273.657 300.138,114.76 247.172,114.76 		"/>
	</g>
	<path style="fill:#ECF0F1;" d="M172.576,84.819c5.72-4.246,9.41-10.964,9.41-18.82V65.91c0-7.645-1.766-15.448-6.418-21.513
		c-26.236-34.127-41.057-9.004-41.057-9.004c9.366,0,15.554,8.174,15.554,17.54s-5.658,14.813-15.554,16.366
		c-15.228,2.357-26.659,11.758-27.11,26.236c-0.477,15.404,12.712,28.019,28.116,28.019h35.716c7.08,0,14.142-5.614,14.142-13.559
		C185.376,99.402,184.422,92.508,172.576,84.819"/>
</g>
<g>
</g>
<g>
</g>
<g>
</g>
<g>
</g>
<g>
</g>
<g>
</g>
<g>
</g>
<g>
</g>
<g>
</g>
<g>
</g>
<g>
</g>
<g>
</g>
<g>
</g>
<g>
</g>
<g>
</g>
</svg>
