<svg width="35" height="25" id="Layer_1" data-name="Layer 1" xmlns="http://www.w3.org/2000/svg" viewBox="0 0 33.31 29.86"><defs><style>.cls-1{fill:#556080;}.cls-2{fill:#8697cb;}.cls-3{fill:#ecf0f1;}</style></defs><title>marker</title><polygon class="cls-1" points="22.97 29.86 5.17 29.86 0 24.12 33.31 24.12 22.97 29.86"/><polygon class="cls-2" points="28.14 24.12 3.45 24.12 3.45 16.08 24.12 16.08 28.14 24.12"/><polygon class="cls-1" points="9.76 21.82 13.78 21.82 13.78 18.38 9.76 18.38 9.76 21.82"/><polygon class="cls-1" points="5.74 21.82 9.76 21.82 9.76 18.38 5.74 18.38 5.74 21.82"/><polygon class="cls-1" points="24.12 21.82 16.08 21.82 16.08 18.38 22.4 18.38 24.12 21.82"/><polygon class="cls-1" points="8.04 16.08 11.49 16.08 11.49 9.19 8.04 9.19 8.04 16.08"/><polygon class="cls-1" points="16.08 16.08 19.53 16.08 19.53 5.74 16.08 5.74 16.08 16.08"/><path class="cls-3" d="M11.23,30.28a1.52,1.52,0,0,0,.61-1.23h0a2.29,2.29,0,0,0-.42-1.4c-1.71-2.22-2.67-.59-2.67-.59a1.06,1.06,0,0,1,1,1.14,1,1,0,0,1-1,1.07A1.85,1.85,0,0,0,7,31,1.81,1.81,0,0,0,8.82,32.8h2.32a.92.92,0,0,0,.92-.88,1.6,1.6,0,0,0-.83-1.64" transform="translate(0 -26.48)"/></svg>
